<?xml version="1.0" standalone="no"?>
<!DOCTYPE svg PUBLIC "-//W3C//DTD SVG 20010904//EN"
 "http://www.w3.org/TR/2001/REC-SVG-20010904/DTD/svg10.dtd">
<svg version="1.0" xmlns="http://www.w3.org/2000/svg"
 width="50.000000pt" height="50.000000pt" viewBox="0 0 50.000000 50.000000"
 preserveAspectRatio="xMidYMid meet">

<g transform="translate(0.000000,50.000000) scale(0.100000,-0.100000)"
fill="#000000" stroke="none">
<path d="M210 433 c-32 -36 -32 -37 -11 -44 11 -5 21 -13 21 -19 0 -5 16 -10
35 -10 24 0 35 5 35 15 0 9 9 15 22 15 20 0 18 4 -17 40 -21 22 -42 40 -46 40
-4 0 -21 -17 -39 -37z"/>
<path d="M65 290 l-39 -40 42 -43 c38 -37 42 -39 42 -19 0 13 6 22 15 22 11 0
15 11 15 40 0 28 -4 40 -14 40 -8 0 -16 9 -18 21 -3 18 -7 16 -43 -21z"/>
<path d="M214 318 c-22 -10 -44 -47 -44 -74 0 -8 7 -28 15 -44 14 -28 20 -30
70 -30 l55 0 0 40 c0 39 -1 40 -36 40 -21 0 -33 -4 -29 -10 3 -5 15 -10 26
-10 33 0 21 -44 -12 -48 -35 -4 -59 22 -59 63 0 55 42 81 91 55 12 -7 19 -7
19 -1 0 26 -58 38 -96 19z"/>
<path d="M390 311 c0 -12 -7 -21 -15 -21 -21 0 -21 -66 0 -74 8 -3 15 -12 15
-21 0 -8 4 -15 8 -15 11 0 72 64 72 75 0 6 -18 25 -40 43 -36 30 -40 31 -40
13z"/>
<path d="M210 125 c0 -9 -9 -15 -22 -15 -20 0 -18 -4 20 -42 l42 -43 42 43
c38 38 40 42 20 42 -13 0 -22 6 -22 15 0 11 -11 15 -40 15 -29 0 -40 -4 -40
-15z"/>
</g>
</svg>
